<svg id="Capa_1" enable-background="new 0 0 512 512" height="512" viewBox="0 0 512 512" width="512" xmlns="http://www.w3.org/2000/svg"><g><g fill="#020288"><path d="m432.8 227.704c-3.381-4.367-9.661-5.166-14.029-1.785-1.426 1.105-35.319 27.582-69.56 74.802-20.128 27.757-36.176 56.956-47.698 86.786-13.21 34.198-20.472 69.3-21.629 104.493h-47.767c-1.152-35.351-8.414-70.555-21.628-104.8-11.525-29.865-27.574-59.057-47.705-86.763-34.249-47.139-68.155-73.442-69.582-74.539-4.375-3.364-10.656-2.546-14.022 1.833s-2.546 10.657 1.833 14.023c.326.251 33.024 25.616 65.591 70.439 29.961 41.237 65.676 107.641 65.676 189.807 0 5.522 4.477 10 10 10h67.439c5.522 0 10-4.478 10-10 0-81.547 35.519-147.806 65.315-189.03 32.575-45.07 65.655-70.984 65.98-71.236 4.367-3.382 5.167-9.663 1.786-14.03z"/><path d="m214.395 333.95c1.821 3.137 5.148 4.98 8.648 4.98.863 0 1.737-.112 2.601-.345 4.366-1.176 7.4-5.135 7.4-9.656v-95.103c0-5.523-4.478-10-10-10-5.523 0-10 4.477-10 10v57.961l-36.563-62.981c-2.773-4.774-8.894-6.401-13.669-3.628-4.776 2.773-6.4 8.893-3.628 13.669z"/><path d="m286.357 338.586c.864.232 1.737.345 2.601.345 3.499 0 6.826-1.844 8.647-4.98l55.212-95.104c2.772-4.776 1.148-10.895-3.628-13.669-4.777-2.771-10.897-1.147-13.669 3.628l-36.564 62.981v-57.961c0-5.523-4.478-10-10-10s-10 4.477-10 10v95.103c.001 4.522 3.035 8.481 7.401 9.657z"/></g><g><path d="m411.507 85.548c-1.554-47.503-41.67-85.548-90.93-85.548-25.248 0-48.094 9.995-64.577 26.136-16.483-16.141-39.329-26.136-64.577-26.136-49.26 0-89.376 38.045-90.93 85.548-41.263 8.388-72.254 43.944-72.254 86.534 0 48.827 40.732 88.409 90.977 88.409 27.259 0 51.718-11.65 68.392-30.107 16.674 18.456 41.133 30.107 68.392 30.107s51.718-11.65 68.392-30.107c16.674 18.456 41.133 30.107 68.392 30.107 50.245 0 90.977-39.582 90.977-88.409 0-42.59-30.991-78.145-72.254-86.534z" fill="#a4fcc4"/></g></g></svg>