<svg id="Capa_1" enable-background="new 0 0 512 512" height="512" viewBox="0 0 512 512" width="512" xmlns="http://www.w3.org/2000/svg"><g><g><path d="m86.465 160.426h339.069v255.591h-339.069z" fill="#e2c4ff" transform="matrix(0 1 -1 0 544.222 32.222)"/></g><g><path d="m196.793 356.924h118.414" fill="#fff"/><g fill="#020288"><path d="m404.728 64.443h-66.086v-14.3c0-5.523-4.478-10-10-10h-23.476c-4.65-22.873-24.929-40.143-49.166-40.143s-44.516 17.27-49.166 40.143h-23.476c-5.522 0-10 4.477-10 10v14.3h-66.086c-18.713 0-33.938 15.224-33.938 33.937v379.684c0 18.713 15.225 33.936 33.938 33.936h297.455c18.713 0 33.938-15.224 33.938-33.936v-379.685c0-18.712-15.225-33.936-33.937-33.936zm-211.37-4.3h22.474c5.523 0 10-4.477 10-10 0-16.621 13.533-30.143 30.168-30.143s30.168 13.522 30.168 30.143c0 5.523 4.478 10 10 10h22.474v48.544h-125.284zm225.307 417.921c0 7.684-6.252 13.936-13.938 13.936h-297.455c-7.686 0-13.938-6.252-13.938-13.936v-379.685c0-7.685 6.252-13.937 13.938-13.937h66.086v34.244c0 5.523 4.478 10 10 10h145.283c5.522 0 10-4.477 10-10v-34.243h66.086c7.686 0 13.938 6.252 13.938 13.937z"/><path d="m315.207 192.114h-118.414c-5.523 0-10 4.477-10 10s4.477 10 10 10h118.414c5.522 0 10-4.477 10-10s-4.478-10-10-10z"/><path d="m315.207 269.519h-118.414c-5.523 0-10 4.477-10 10s4.477 10 10 10h118.414c5.522 0 10-4.477 10-10s-4.478-10-10-10z"/><path d="m315.207 346.923h-118.414c-5.523 0-10 4.477-10 10s4.477 10 10 10h118.414c5.522 0 10-4.477 10-10s-4.478-10-10-10z"/></g></g></g></svg>