<svg id="Capa_1" enable-background="new 0 0 512 512" height="512" viewBox="0 0 512 512" width="512" xmlns="http://www.w3.org/2000/svg"><g><g><path d="m441.363 430.774h-44.363c-5.523 0-10-4.478-10-10s4.477-10 10-10h44.362c4.236 0 7.683-3.447 7.683-7.684v-375.407c0-4.236-3.446-7.683-7.683-7.683h-289.436c-4.236 0-7.683 3.446-7.683 7.683v39.147c0 5.522-4.477 10-10 10s-10-4.478-10-10v-39.147c-.001-15.265 12.418-27.683 27.683-27.683h289.437c15.265 0 27.683 12.418 27.683 27.683v375.408c-.001 15.264-12.419 27.683-27.683 27.683z" fill="#020288"/><path d="m400.719 50.613h-289.437c-9.766 0-17.683 7.917-17.683 17.683v19.132l2.915 3.798h207.848l73.396 73.341v293.04l2.902 3.78h20.059c9.766 0 17.683-7.917 17.683-17.683v-375.408c0-9.766-7.917-17.683-17.683-17.683z" fill="#fff59b"/></g><g><path d="m387.758 164.291c0-2.569-1.078-5.016-2.929-6.796-.001-.001-.002-.002-.002-.002s-73.503-73.445-73.556-73.497l-.089-.083c-1.851-1.727-4.288-2.687-6.82-2.687h-233.717c-15.293 0-27.69 12.397-27.69 27.69v375.408c0 15.285 12.391 27.677 27.677 27.677h289.437c15.292 0 27.689-12.397 27.689-27.69v-319.695c0-.003 0-.124 0-.325zm-34.155-9.725h-39.241v-39.212zm6.466 337.434h-289.424c-4.24 0-7.69-3.443-7.69-7.677v-375.421c0-4.233 3.45-7.677 7.69-7.677h223.717v63.341c0 5.522 4.478 10 10 10h63.396v309.757c0 4.234-3.449 7.677-7.689 7.677z" fill="#020288"/></g></g></svg>