<svg id="Capa_1" enable-background="new 0 0 512 512" height="512" viewBox="0 0 512 512" width="512" xmlns="http://www.w3.org/2000/svg"><g><g><g><path d="m377.855 311.171c-6.919 0-13.434-3.214-17.642-8.681l-15.979-33.116-16.341 46.212c-3.268 7.702-10.591 12.927-18.937 13.503-8.356.576-16.327-3.568-20.637-10.733l-13.576-22.608-23.823 48.381c-4.9 8.991-11.583 14.927-21.011 14.927-.384 0-.769-.01-1.153-.03-9.873-.505-15.677-7.647-20.515-17.09l-40.145-68.087-13.216 21.091c-3.955 6.984-11.36 11.299-19.382 11.299h-49.009c50.95 53.457 169.704 130.621 169.704 130.621s111.444-72.373 164.6-125.689z" fill="#ffbdbc"/></g><g><path d="m121.968 261.844 35.334-59.318c4.502-7.974 13.434-12.37 22.508-11.077 9.064 1.283 14.74 6.937 19.146 18.421l35.03 86.9 14.354-41.184c2.833-8.156 10.136-13.926 18.735-14.816 8.589-.879 16.914 3.274 21.365 10.683l15.538 25.863 17.461-88.601c.83-4.211 2.837-8.152 5.971-11.085 3.36-3.144 7.671-5.225 12.388-5.833.392-.05.785-.089 1.176-.118 9.552-.707 18.265 5.522 21.27 14.616l26.565 80.408h63.726c9.903-20.936 16.059-44.205 14.685-72.907-3.113-64.987-50.675-118.656-108.931-118.656-57.318 0-102.287 47.698-102.287 47.698s-42.4-47.698-102.291-47.698c-58.253 0-105.819 53.669-108.932 118.656-1.265 26.47 3.889 48.377 12.46 68.027z" fill="#ffbdbc"/></g></g><g><g><path d="m229.91 369.055c-.555 0-1.108-.015-1.661-.043-15.834-.811-23.996-13.004-28.768-22.247l-31.645-53.669-4.374 6.982c-5.749 9.976-16.44 16.161-27.964 16.161h-125.498c-5.523 0-10-4.478-10-10v-44.432c0-2.652 1.054-5.196 2.93-7.072 1.876-1.875 4.419-2.928 7.07-2.928h.003l106.283.034 32.372-54.346c6.592-11.572 19.359-17.829 32.563-15.948 16.616 2.354 23.395 15.181 27.043 24.662l25.043 62.126 5.591-16.042c4.085-11.758 14.743-20.189 27.15-21.472 12.403-1.269 24.552 4.807 30.964 15.48l2.174 3.617 12.442-63.139c1.277-6.48 4.373-12.171 8.951-16.454 4.977-4.657 11.183-7.578 17.944-8.447.564-.073 1.136-.131 1.706-.173 14.034-1.04 26.993 7.781 31.511 21.451l24.298 73.545h105.962c5.522 0 10 4.478 10 10v44.469c0 5.522-4.478 10-10 10h-124.145c-9.945 0-19.503-4.703-25.566-12.581-.421-.546-.783-1.134-1.083-1.754l-5.547-11.497-8.339 23.581c-.068.192-.143.384-.222.572-4.767 11.232-15.286 18.731-27.454 19.572-12.175.827-23.62-5.122-29.895-15.557l-4.138-6.89-15.72 31.926c-.062.124-.125.247-.191.368-9.07 16.65-21.206 20.145-29.79 20.145zm-61.815-105.208c.046 0 .091 0 .136.001 3.491.047 6.706 1.912 8.48 4.92l40.145 68.088c.1.17.195.343.285.518 4.823 9.411 8.337 11.469 12.128 11.663.211.011.427.018.642.018 3.208 0 7.48-1.089 12.135-9.54l23.727-48.185c1.617-3.284 4.898-5.422 8.556-5.574 3.628-.165 7.104 1.704 8.989 4.843l13.576 22.608c2.382 3.961 6.732 6.231 11.376 5.905 4.529-.313 8.458-3.06 10.313-7.191l16.225-45.88c1.346-3.807 4.849-6.43 8.88-6.651 4.022-.221 7.8 2.004 9.555 5.64l15.459 32.041c2.31 2.583 5.669 4.102 9.155 4.102h114.143v-24.469h-103.19c-4.314 0-8.142-2.767-9.495-6.863l-26.565-80.408c-1.606-4.862-6.247-8.132-11.036-7.78-.205.016-.419.036-.632.063-2.582.332-4.944 1.444-6.838 3.217-1.477 1.381-2.539 3.411-2.993 5.717l-17.461 88.6c-.8 4.058-4.015 7.204-8.088 7.917-4.08.708-8.165-1.156-10.296-4.7l-15.538-25.862c-2.439-4.059-7.064-6.366-11.772-5.885-4.708.486-8.758 3.686-10.309 8.148l-14.358 41.194c-1.371 3.935-5.038 6.607-9.203 6.706-4.132.098-7.956-2.394-9.514-6.259l-35.029-86.9c-.021-.052-.042-.104-.062-.155-3.938-10.26-7.698-11.604-11.213-12.103-5.053-.727-9.904 1.674-12.398 6.092-.038.067-.077.135-.117.201l-35.335 59.318c-1.803 3.028-5.067 4.883-8.591 4.883-.001 0-.002 0-.003 0l-101.964-.035v24.429h115.498c4.413 0 8.505-2.386 10.681-6.227.072-.129.148-.256.227-.382l13.216-21.094c1.829-2.92 5.032-4.689 8.473-4.689z" fill="#020288"/></g></g></g></svg>